PathFileType	4	(X/Y/Z)	Patient4_TMGait_0pt6_01_left_46.trc.trc
DataRate	CameraRate	NumFrames	NumMarkers	Units	OrigDataRate	OrigDataStartFrame	OrigNumFrames
83.832335329341	83.832335329341	4	33	mm	83.832335329341	36	       141
Frame#	Time	Sacral			L.Shoulder			Chest			R.Shoulder			Neck			R.ASIS			L.ASIS			R.Thigh.Superior			R.Thigh.Lateral			R.Thigh.Inferior			R.Patella			L.Thigh.Superior			L.Thigh.Lateral			L.Thigh.Inferior			L.Patella			L.Shank.Superior			L.Shank.Lateral			L.Shank.Inferior			R.Shank.Superior			R.Shank.Lateral			R.Shank.Inferior			R.Heel			R.Midfoot.Superior			R.Midfoot.Lateral			R.Toe			L.Heel			L.Midfoot.Lateral			L.Midfoot.Superior			L.Toe			L.Elbow			L.Wrist			R.Elbow			R.Wrist			
		X1	Y1	Z1	X2	Y2	Z2	X3	Y3	Z3	X4	Y4	Z4	X5	Y5	Z5	X6	Y6	Z6	X7	Y7	Z7	X8	Y8	Z8	X9	Y9	Z9	X10	Y10	Z10	X11	Y11	Z11	X12	Y12	Z12	X13	Y13	Z13	X14	Y14	Z14	X15	Y15	Z15	X16	Y16	Z16	X17	Y17	Z17	X18	Y18	Z18	X19	Y19	Z19	X20	Y20	Z20	X21	Y21	Z21	X22	Y22	Z22	X23	Y23	Z23	X24	Y24	Z24	X25	Y25	Z25	X26	Y26	Z26	X27	Y27	Z27	X28	Y28	Z28	X29	Y29	Z29	X30	Y30	Z30	X31	Y31	Z31	X32	Y32	Z32	X33	Y33	Z33	

36	56.417500000000	815.175547783730	1008.543108440721	437.706790921354	963.927950178688	1441.148862184346	266.098084520506	1081.390246137784	1370.040916979661	415.414577423313	1008.984221036860	1435.264774594759	596.852821980955	953.884728429707	1494.202827741841	423.099241465292	1042.567686264355	936.525754189150	542.393435690567	1020.740479394666	964.216372501441	270.367877895759	1048.354353212080	723.652107006429	520.063642852962	948.165534348733	627.194930947202	581.185590523722	1017.859452274599	559.386925947382	506.713423007871	997.236306685773	458.560878425307	519.737503952535	1087.063612820659	764.156155042298	300.858092467319	1013.482139426350	639.059061200335	240.588839786818	1108.016204148585	570.954252791748	302.830534196564	1116.820424581167	500.582583465907	311.295417678539	1095.752568688866	426.746673204601	303.716531673005	1015.837320601349	305.697241801653	251.777724193238	1076.950446264328	198.765621907157	322.484081979148	929.474172268317	389.217219353051	523.574539360305	817.629736962482	328.741003582584	583.183742957063	819.875145430729	221.562797735328	526.386552126506	630.586666805008	110.441197743572	493.663334448697	808.607225107812	108.033229709791	536.122321525364	704.232613585417	73.096897677221	567.419753139327	902.868116093201	34.218160217089	563.211406744543	960.215200158057	38.353403479382	362.432805864316	1036.247309573443	35.768036758417	283.480237067197	1117.297594607157	98.121131469455	311.762856791420	1247.347548177873	47.842783569075	287.978888860010	906.422278286606	1092.682856564033	144.877036170531	969.353902822166	840.017739576373	130.603824504259	1048.971656223016	1087.672676253128	707.516057871779	1290.486973725440	1062.434513281334	645.066923535288	
37	56.429428571429	814.889317593953	1009.751823279599	434.590061699722	965.480033373303	1442.649949491666	263.669111980347	1081.783868389378	1371.082519568960	413.651223103765	1008.350636825671	1436.285035205085	594.597003107697	954.239414634581	1495.393405142190	420.719569832673	1041.841671747299	937.943230431475	540.108309937632	1021.072442952329	965.470497963338	268.251000828867	1052.525529659609	725.794658985585	518.426167537052	955.089856649826	627.326613486854	579.690792581191	1027.008122780921	560.464235040463	505.700008335334	1007.576381350252	457.699868831916	520.113049450281	1085.359643601839	763.439332264135	297.499891053564	1009.057018263942	639.145240749246	238.858958344883	1102.900710792340	570.029101981758	300.719659316593	1110.742629628377	500.072060225265	309.987436245573	1089.734320311765	426.521308315632	302.515836468207	1009.724043732502	305.550887094147	250.583796450400	1070.229079590525	198.673188328896	321.941436389744	937.183770381714	389.695353103681	523.355895634732	822.951984801124	333.393686724139	582.553410072765	821.993054055833	225.916353785242	526.469427520772	629.240401342889	123.067906484171	493.398108569976	806.527318247522	111.332334445761	536.463861190382	700.546514632069	81.558059618874	567.184965732165	896.210101661283	33.317061815184	563.395165871617	953.108885211126	38.361460394604	362.315636386811	1029.131802974991	35.691457196601	283.349245090379	1110.217815084865	98.030179151971	311.574547292621	1240.306991512601	47.648653504165	287.855431472464	911.223821490115	1093.900246817906	141.266339670763	985.129211391364	843.981505194912	127.667098755411	1039.489090200558	1087.352484700935	703.926621366374	1280.128228599752	1042.851193584591	644.709368486731	
38	56.441357142857	814.427563653833	1010.586958404636	431.578126408890	967.013090836579	1443.796328582904	261.273347961544	1082.061943301738	1371.814562572612	411.999033596125	1007.483404454124	1436.948884425651	592.435369257748	954.519503991578	1496.296177558595	418.393400133593	1041.011806651570	939.060795630952	538.011331836152	1021.275602117938	966.417342830999	266.330093842428	1057.110039509679	727.943822392543	516.759153575589	962.773547666716	627.330938859368	578.236584534970	1036.855834972960	561.632121722717	504.565569567108	1018.723061774361	457.033270812426	520.198115030937	1083.520888575280	762.518068567248	294.391740818006	1004.839252689455	639.161439209806	237.106417920663	1097.940474356926	569.093922193022	298.731255421488	1104.857193144104	499.485623943609	308.634432875301	1083.866801971068	426.190279461006	301.274975249338	1003.675860308479	305.331385756337	249.394032131104	1063.528770596725	198.484006375272	321.389517501131	945.833608759389	390.226979771905	522.962940651264	829.368637058759	338.231186163117	581.800905559721	824.964790622003	230.642047436124	526.372885185492	629.010407500955	136.640875858446	492.982879724149	805.084364989310	115.301923637823	536.622935221479	697.690100359788	91.037224303429	566.851013477920	889.912287347224	32.442355264906	563.584008833576	945.910601227065	38.355136764178	362.202764513923	1021.935869009617	35.581840985437	283.231554602151	1103.096730070037	97.861134860364	311.426656206350	1233.213485205937	47.297749215978	287.786509251507	916.010680530984	1094.887376456989	137.483670064096	1001.341209844910	848.373700831363	124.806496364067	1030.068051158432	1086.933850223086	700.439547633704	1268.303822555195	1023.092978114260	644.441695915594	
39	56.453285714286	813.781150195675	1011.043004233316	428.713453170595	968.463997319725	1444.564591312490	258.947535698761	1082.208670031237	1372.224716426132	410.464905659107	1006.413666462224	1437.251132959450	590.396041399701	954.724942492488	1496.905272986410	416.151918260753	1040.097557726118	939.852507204189	536.099817009528	1021.308957504575	967.037453769688	264.563088027800	1061.974958385422	730.113444878083	515.026779278673	971.058903200341	627.289076168338	576.809720672837	1047.189013661129	562.958964449290	503.279715061632	1030.493364617542	456.650921082538	519.948407302505	1081.602955855333	761.485290715422	291.603103487911	1000.966547709977	639.136546589186	235.325285633910	1093.255375160211	568.181755893481	296.884658673546	1099.293356658780	498.836501833206	307.253269746466	1078.261766833176	425.756694141457	300.018558056178	997.797900281527	305.057298729244	248.213922757452	1056.912749239995	198.205986931445	320.836831407112	955.274430020810	390.870645942184	522.375304851280	836.768259772304	343.230873428040	580.919317897357	828.768241016326	235.714547597597	526.096397634211	629.959476400557	150.884886968564	492.449480386006	804.378351877948	119.931077289945	536.585372564672	695.815577799290	101.357031423740	566.427814148226	884.181447817961	31.724727493456	563.722292667238	938.660968373743	38.342648925519	362.087406771700	1014.696166324576	35.457764952434	283.117528223523	1095.961725617442	97.640859611317	311.307374418245	1226.093924988294	46.836482874296	287.749307195933	920.834723489728	1095.602280743830	133.568211604280	1017.892930910749	853.195893140972	122.019933464871	1020.738085568537	1086.372440180941	697.130113262922	1254.951653225059	1003.338748087086	644.245293013809	
